<?xml version="1.0" encoding="UTF-8"?>
<!DOCTYPE svg PUBLIC "-//W3C//DTD SVG 1.1//EN" "http://www.w3.org/Graphics/SVG/1.1/DTD/svg11.dtd">
<!-- Creator: CorelDRAW 2020 (64-Bit) -->
<svg xmlns="http://www.w3.org/2000/svg" xml:space="preserve" width="359.837mm" height="166.406mm" version="1.1" style="shape-rendering:geometricPrecision; text-rendering:geometricPrecision; image-rendering:optimizeQuality; fill-rule:evenodd; clip-rule:evenodd"
viewBox="0 0 1975.3 913.47"
 xmlns:xlink="http://www.w3.org/1999/xlink"
 xmlns:xodm="http://www.corel.com/coreldraw/odm/2003">
 <defs>
  <style type="text/css">
   <![CDATA[
    .str0 {stroke:black;stroke-width:1.1;stroke-miterlimit:22.9256}
    .fil1 {fill:black}
    .fil0 {fill:black;fill-rule:nonzero}
   ]]>
  </style>
 </defs>
 <g id="Capa_x0020_1">
  <metadata id="CorelCorpID_0Corel-Layer"/>
  <g id="_2264516431696">
   <path class="fil0" d="M78.53 454.99l121.32 -132.42 0 -0.02c23.44,-25.46 39.92,-46.86 50.48,-66.26 10.32,-18.95 14.97,-36.02 14.97,-53.24 0,-18.16 -5.22,-32.54 -14.28,-42.36 -9.2,-9.97 -22.54,-15.39 -38.53,-15.39 -15.68,0 -28.88,5.5 -37.97,16.04 -8.85,10.26 -13.99,25.42 -13.99,45.11 0,5.3 0.21,10.82 0.72,16.76 0.52,5.99 1.34,12.4 2.58,19.41l1.17 6.65 -157.76 0 -1.11 -4.23c-2.2,-8.35 -3.73,-16.45 -4.71,-24.49 -0.98,-8.07 -1.42,-16.1 -1.42,-24.28l0.02 0c-0.03,-1.99 -0.03,-3.99 0.01,-5.97 0.96,-46.83 22.59,-93.92 58.97,-129.51 36.31,-35.53 87.35,-59.68 147.21,-60.75 2.93,-0.05 5.87,-0.05 8.83,0.01l0 -0.02c59.72,0 112.52,20.21 150.34,54.09 37.68,33.76 60.46,81.02 60.46,135.37 0,39.48 -10.65,74.6 -31.61,110.68 -20.71,35.64 -51.47,72.12 -92.02,114.73l-30.62 31.82 159.6 0 0 0.02 107.8 0.07c-9.48,-21.5 -16.21,-43.88 -20.68,-67.86 -5.02,-26.94 -7.19,-55.8 -7.19,-87.61 0,-86.53 21.63,-161.08 63.95,-213.12 40,-49.2 98.26,-78.2 173.98,-78.2 75.71,0 133.97,29 173.98,78.2 42.32,52.04 63.95,126.59 63.95,213.12 0,31.82 -2.18,60.68 -7.22,87.61 -4.48,23.95 -11.23,46.31 -20.71,67.81l184.1 -0.1 113.7 -124.1c23.36,-25.49 39.84,-46.89 50.44,-66.32 10.33,-18.94 15.02,-35.99 15.02,-53.2 0,-18.16 -5.22,-32.54 -14.28,-42.36 -9.2,-9.97 -22.54,-15.39 -38.53,-15.39 -15.68,0 -28.88,5.5 -37.97,16.04 -8.85,10.26 -13.99,25.42 -13.99,45.11 0,5.3 0.21,10.82 0.72,16.76 0.52,5.99 1.34,12.4 2.58,19.41l1.17 6.65 -157.76 0 -1.11 -4.23c-2.2,-8.35 -3.73,-16.45 -4.71,-24.49 -0.98,-8.07 -1.42,-16.1 -1.42,-24.28l0.02 0c-0.03,-1.99 -0.03,-3.99 0.01,-5.97 0.96,-46.83 22.59,-93.92 58.97,-129.51 36.31,-35.53 87.35,-59.68 147.21,-60.75 2.93,-0.05 5.87,-0.05 8.83,0.01l0 -0.02c59.72,0 112.52,20.21 150.34,54.09 37.68,33.76 60.46,81.02 60.46,135.37 0,39.48 -10.65,74.6 -31.61,110.68 -20.71,35.64 -51.47,72.12 -92.02,114.73l-30.62 31.82 31.12 0 0 0.02 177.71 0c0.23,-0 72.25,-0.87 207.6,-0.87 21.28,0 39.26,-5.33 51.62,-15.46 11.45,-9.39 18.15,-23.12 18.15,-40.74 0,-17.76 -6.92,-30.57 -21.02,-38.88 -15.08,-8.89 -38.29,-13.08 -69.93,-13.08l-85.35 0 0 -44.67 94.21 -140.11 -154.4 0 0 -142.73 388.54 0 0 45.51 -108.12 160.94c33.82,14.25 63.06,36.89 83.81,66.33 20.58,29.19 32.78,65 32.78,105.85 0,12.63 -1.18,24.96 -3.46,36.9 -2.32,12.21 -5.79,23.96 -10.28,35.18l-10.51 -4.21c4.23,-10.55 7.48,-21.59 9.66,-33.05 2.13,-11.18 3.24,-22.8 3.24,-34.82 0,-38.4 -11.43,-72 -30.7,-99.34 -20.75,-29.43 -50.63,-51.67 -85.16,-64.89l-6.65 -2.54 114.03 -169.74 0 -30.77 -365.84 0 0 120.03 164.31 0 -104.13 154.86 0 29.92 74 0c33.63,0 58.73,4.71 75.65,14.68 17.89,10.54 26.66,26.56 26.66,48.64 0,21.25 -8.24,37.93 -22.32,49.47 -14.44,11.85 -34.93,18.08 -58.8,18.08 -138.79,0 -207.26,0.83 -207.46,0.83l-177.84 -0 0 0.02 -57.76 0 49.06 -50.97c39.97,-42.01 70.24,-77.86 90.43,-112.61 19.93,-34.31 30.06,-67.63 30.06,-105.01 0,-51.01 -21.35,-95.32 -56.65,-126.95 -35.77,-32.05 -85.91,-51.17 -142.8,-51.17l-0.11 -0.02c-2.87,-0.06 -5.72,-0.06 -8.54,-0.01 -56.73,1.01 -105.07,23.88 -139.45,57.52 -34.31,33.57 -54.7,77.8 -55.6,121.66 -0.04,1.89 -0.04,3.78 -0.01,5.66l0.02 0.09c0,7.79 0.41,15.37 1.33,22.94 0.76,6.21 1.85,12.41 3.34,18.71l135.55 0c-0.72,-4.84 -1.26,-9.4 -1.63,-13.74 -0.55,-6.31 -0.76,-12.16 -0.76,-17.74 0,-22.52 6.17,-40.2 16.79,-52.51 11.32,-13.13 27.5,-19.99 46.53,-19.99 19.24,0 35.47,6.71 46.87,19.07 10.97,11.9 17.29,28.91 17.29,50.03 0,19.09 -5.13,37.88 -16.44,58.61 -11.05,20.24 -28.05,42.35 -52.03,68.54l-117.07 127.78 -206.86 0.11 3.87 -8.1c11.01,-23.02 18.63,-47.07 23.5,-73.11 4.88,-26.09 7,-54.28 7,-85.52 0,-83.97 -20.76,-156.03 -61.38,-205.98 -37.85,-46.55 -93.16,-73.99 -165.2,-73.99 -72.04,0 -127.35,27.44 -165.2,73.99 -40.61,49.95 -61.38,122.01 -61.38,205.98 0,31.26 2.1,59.46 6.96,85.57 4.85,26.04 12.46,50.09 23.47,73.12l3.87 8.1 -125.59 -0.08 0 0.02 -186.23 0 49.05 -50.97c39.97,-42.01 70.24,-77.86 90.43,-112.61 19.93,-34.31 30.06,-67.63 30.06,-105.01 0,-51.01 -21.35,-95.32 -56.65,-126.95 -35.77,-32.05 -85.91,-51.17 -142.8,-51.17l-0.11 -0.02c-2.87,-0.06 -5.72,-0.06 -8.54,-0.01 -56.73,1.01 -105.07,23.88 -139.45,57.52 -34.31,33.57 -54.7,77.8 -55.6,121.66 -0.04,1.89 -0.04,3.78 -0.01,5.66l0.02 0.09c0,7.79 0.41,15.37 1.33,22.94 0.76,6.21 1.85,12.41 3.34,18.71l135.55 0c-0.72,-4.84 -1.26,-9.4 -1.63,-13.74 -0.55,-6.31 -0.76,-12.16 -0.76,-17.74 0,-22.52 6.17,-40.2 16.78,-52.51 11.32,-13.13 27.5,-19.99 46.53,-19.99 19.24,0 35.47,6.71 46.87,19.07 10.97,11.9 17.29,28.91 17.29,50.03 0,19.09 -5.09,37.9 -16.39,58.65 -11.05,20.3 -28.05,42.41 -52.08,68.52l-0.01 -0.01 -121.31 132.4 -8.34 -7.63zm759.26 -162.79c0,53.87 -7.2,94.56 -21.49,121.98 -14.94,28.66 -37.4,43.05 -67.25,43.05 -29.85,0 -52.31,-14.39 -67.25,-43.05 -14.29,-27.41 -21.49,-68.11 -21.49,-121.98 0,-53.49 6.8,-92.52 20.95,-118.41 14.77,-27.02 37.18,-39.84 67.8,-39.84 30.62,0 53.03,12.82 67.8,39.84 14.15,25.88 20.95,64.91 20.95,118.41zm-31.55 116.74c13.43,-25.77 20.2,-64.72 20.2,-116.74 0,-51.61 -6.34,-88.87 -19.53,-113 -12.57,-22.99 -31.69,-33.9 -57.86,-33.9 -26.17,0 -45.3,10.91 -57.86,33.9 -13.19,24.13 -19.53,61.38 -19.53,113 0,52.02 6.77,90.97 20.2,116.74 12.82,24.59 31.91,36.93 57.19,36.93 25.27,0 44.37,-12.34 57.19,-36.93z"/>
   <polygon class="fil0" points="1506.82,895.78 1547.38,895.78 1547.38,886.33 1517.35,886.33 1517.35,830.16 1506.82,830.16 "/>
   <polygon id="1" class="fil0" points="1555.88,895.78 1566.42,895.78 1566.42,830.16 1555.88,830.16 "/>
   <polygon id="2" class="fil0" points="1639.54,829.07 1612,865.75 1584.46,829.07 1580.78,829.07 1580.78,895.78 1591.32,895.78 1591.32,854.52 1610.21,879.27 1613.79,879.27 1632.58,854.62 1632.58,895.78 1643.12,895.78 1643.12,829.07 "/>
   <path id="3" class="fil0" d="M1701.52 895.78l11.33 0 -28.93 -66.71 -3.58 0 -28.93 66.71 11.23 0 4.67 -10.94 29.53 0 4.67 10.94zm-8.45 -19.98l-21.97 0 11.04 -27.14 10.94 27.14z"/>
   <polygon id="4" class="fil0" points="1722.55,913.47 1731,913.47 1735.67,885.24 1723.54,885.24 "/>
   <path id="5" class="fil0" d="M1748.85 895.78l10.54 0 0 -25.35 13.42 0c13.22,0 22.27,-8.45 22.27,-20.18 0,-11.83 -9.05,-20.08 -22.27,-20.08l-23.96 0 0 65.62zm10.54 -34.7l0 -21.57 13.22 0c7.46,0 11.63,4.37 11.63,10.84 0,6.46 -4.18,10.74 -11.63,10.74l-13.22 0z"/>
   <polygon id="6" class="fil0" points="1804.67,895.78 1849.01,895.78 1849.01,886.33 1815.21,886.33 1815.21,865.55 1839.76,865.55 1839.76,856.41 1815.21,856.41 1815.21,839.6 1847.82,839.6 1847.82,830.16 1804.67,830.16 "/>
   <path id="7" class="fil0" d="M1912.39 895.78l-19.68 -27.04c7.85,-3.08 12.63,-9.84 12.63,-18.49 0,-11.83 -9.05,-20.08 -22.27,-20.08l-23.96 0 0 65.62 10.54 0 0 -25.35 12.03 0 18.69 25.35 12.03 0zm-42.75 -56.27l13.22 0c7.26,0 11.63,4.37 11.63,10.84 0,6.36 -4.37,10.74 -11.63,10.74l-13.22 0 0 -21.57z"/>
   <path id="8" class="fil0" d="M1917.01 869.23c0,17.3 11.33,27.64 27.04,27.64 15.41,0 26.84,-10.34 26.84,-27.64l0 -39.07 -10.54 0 0 39.77c0,11.13 -6.76,17.3 -16.3,17.3 -9.64,0 -16.5,-6.16 -16.5,-17.3l0 -39.77 -10.54 0 0 39.07zm22.87 -45.43l7.75 0 12.82 -16.6 0 -1.89 -12.73 0 -7.85 18.49z"/>
   <path class="fil0" d="M176.94 665.94c1.03,-3.77 1.37,-9.27 1.37,-16.47 0,-44.27 -33.29,-73.78 -74.12,-73.78 -45.64,-1.03 -84.76,39.46 -83.73,86.47 -1.03,47.01 38.78,87.16 85.79,86.13 26.42,0 50.1,-11.67 66.57,-30.88l-10.98 -11.32c-14.76,17.5 -33.29,26.08 -55.25,26.08 -37.4,0 -66.23,-27.45 -68.29,-66.23l138.63 0zm-137.95 -15.44c2.4,-17.16 9.61,-31.23 21.62,-42.21 12.01,-11.32 26.08,-16.81 42.89,-16.81 31.91,0 58.34,22.99 56.96,59.02l-121.48 0z"/>
   <polygon id="1" class="fil0" points="342.51,744.86 279.03,658.39 337.36,579.12 316.77,579.12 268.73,645.69 221.38,579.12 200.79,579.12 258.44,657.7 195.64,744.86 216.23,744.86 269.08,670.74 321.92,744.86 "/>
   <path id="2" class="fil0" d="M542.4 661.82c0,-47.7 -36.03,-86.13 -82.36,-86.13 -28.82,0 -55.25,14.41 -67.6,36.72l0 -33.29 -16.47 0 0 227.51 17.16 0 0 -93.68c12.7,21.96 39.12,35.34 66.91,35.34 46.33,0 82.36,-38.09 82.36,-86.47zm-17.84 0.34c0,39.81 -28.14,70 -66.23,70 -34.32,0 -65.2,-22.65 -65.2,-70.35 0,-47.35 30.88,-70 65.2,-70 38.09,0 66.23,30.88 66.23,70.35z"/>
   <path id="3" class="fil0" d="M573.45 661.82c-1.03,47.01 38.78,87.5 85.44,86.47 47.01,1.03 87.16,-39.46 86.13,-86.47 0,-47.7 -38.43,-86.13 -85.79,-86.13 -47.01,-1.03 -86.82,38.43 -85.79,86.13zm153.73 0.34c0,39.12 -30.2,70 -68.29,70 -38.09,0 -67.6,-30.88 -67.6,-70 0,-39.81 29.51,-70.35 67.94,-70.35 37.75,0 67.94,30.54 67.94,70.35z"/>
   <path id="4" class="fil0" d="M903.39 487.5l0 103.98c-12.35,-13.38 -29.17,-20.25 -50.79,-20.25 -47.36,0 -82.36,37.75 -82.36,88.88 0,51.13 35,88.88 82.36,88.88 23.33,0 43.24,-8.92 54.56,-25.05l0 20.93 42.55 0 0 -257.36 -46.33 0zm0.69 172.61c0,30.54 -19.56,46.67 -42.89,46.67 -25.05,0 -43.92,-18.53 -43.92,-47.01 0,-27.8 19.22,-46.67 43.92,-46.67 23.33,0 42.89,16.81 42.89,47.01z"/>
   <path id="5" class="fil0" d="M1144.45 675.54c2.06,-8.58 3.09,-17.16 3.09,-25.39 0,-44.27 -32.94,-78.93 -79.95,-78.93 -49.07,-1.03 -89.91,39.81 -88.88,88.88 -1.03,49.07 40.49,89.91 92.99,88.88 25.05,0 47.7,-8.58 67.94,-25.39l-19.22 -31.57c-14.76,11.32 -30.54,17.16 -47.35,17.16 -24.71,0 -42.21,-12.01 -47.7,-33.63l119.07 0zm-119.07 -32.6c5.15,-20.93 20.93,-34.31 40.49,-34.31 20.25,0 36.37,13.38 36.72,34.31l-77.21 0z"/>
   <path id="6" class="fil0" d="M1285.32 706.08c-12.01,1.03 -19.22,1.37 -21.96,1.37 -21.96,0 -31.57,-7.21 -31.57,-26.42l0 -66.91 48.04 0 0 -39.12 -48.04 0 0 -42.89 -46.33 0 0 42.89 -26.77 0 0 39.12 26.77 0 0 71.03c0,42.55 25.05,63.83 67.94,63.83 10.29,0 20.93,-1.37 31.91,-4.12l0 -38.78z"/>
   <path id="7" class="fil0" d="M1453.97 643.97c0,-47.01 -28.48,-72.75 -72.75,-72.75 -29.85,0 -54.56,11.67 -74.12,35l24.02 28.48c15.1,-16.13 27.45,-23.33 44.95,-23.33 20.59,0 31.57,10.98 31.57,29.85l0 7.55 -42.55 0c-39.46,0 -64.17,18.87 -64.17,49.41 0,29.85 22.65,50.79 58.68,50.79 21.62,0 39.46,-7.89 51.82,-20.59l0 16.47 42.55 0 0 -100.89zm-46.33 37.4c0,19.56 -15.44,33.63 -35.69,33.63 -14.76,0 -24.36,-7.21 -24.36,-18.53 0,-11.32 8.58,-17.16 23.68,-17.16l36.37 0 0 2.06z"/>
   <polygon id="8" class="fil0" points="1491.2,744.86 1537.53,744.86 1537.53,487.5 1491.2,487.5 "/>
   <polygon id="9" class="fil0" points="1576.13,744.86 1622.46,744.86 1622.46,487.5 1576.13,487.5 "/>
   <path id="10" class="fil0" d="M1817.2 675.54c2.06,-8.58 3.09,-17.16 3.09,-25.39 0,-44.27 -32.94,-78.93 -79.95,-78.93 -49.07,-1.03 -89.91,39.81 -88.88,88.88 -1.03,49.07 40.49,89.91 92.99,88.88 25.05,0 47.7,-8.58 67.94,-25.39l-19.22 -31.57c-14.76,11.32 -30.54,17.16 -47.35,17.16 -24.71,0 -42.21,-12.01 -47.7,-33.63l119.07 0zm-119.07 -32.6c5.15,-20.93 20.93,-34.31 40.49,-34.31 20.25,0 36.37,13.38 36.72,34.31l-77.21 0z"/>
   <path id="11" class="fil0" d="M1833.49 716.04c15.44,20.59 40.49,32.94 70.35,32.94 19.22,0 35,-4.8 47.35,-14.41 12.7,-9.61 18.87,-22.99 18.87,-39.81 0,-25.05 -14.76,-38.43 -47.7,-51.82l-16.47 -6.86c-13.38,-5.49 -17.84,-8.58 -17.84,-15.1 0,-7.89 6.86,-12.01 18.19,-12.01 14.07,0 26.77,5.49 38.09,16.13l23.33 -28.48c-15.44,-16.81 -35.69,-25.39 -61.08,-25.39 -37.06,0 -62.45,18.87 -62.45,50.79 0,25.05 15.1,39.12 46.33,51.82l18.19 7.55c12.7,5.49 17.5,8.24 17.5,15.44 0,9.27 -9.27,14.07 -21.62,14.07 -16.81,0 -32.94,-7.55 -47.7,-22.99l-23.33 28.14z"/>
  </g>
  <rect class="fil1 str0" x="454.32" y="576.2" width="9.8" height="14.16"/>
  <rect class="fil1 str0" x="389.69" y="446.72" width="15.25" height="11.35"/>
 </g>
</svg>
